<svg xmlns="http://www.w3.org/2000/svg" height="48px" viewBox="0 -960 960 960" width="48px" fill="#e3e3e3"><path d="M222.5-85q-21.97 0-39.73-17.27Q165-119.53 165-142.5v-675q0-21.97 17.77-39.73Q200.53-875 222.5-875H795v57.5H688.5v57.55q0 13.95-12.5 26.7t-25.83 12.75H370q-14 0-26.25-12.75t-12.25-26.7v-57.55h-109v675h187q-37.46-25.99-57.73-62-20.27-36-20.27-88.7V-483h357v189.8q0 52.7-21 88.7t-58 62H795V-85H222.5Zm286.88-82q50.62 0 86.12-36.68 35.5-36.67 35.5-89.07V-425.5H389v132.75q0 52.4 34.38 89.07 34.38 36.68 86 36.68Zm27.12-402.95q11-10.94 11-27.5 0-16.55-10.9-27.55t-27.75-11q-16.85 0-27.6 10.84t-10.75 27.61q0 16.76 10.7 27.66Q491.89-559 508.7-559q16.8 0 27.8-10.95ZM510-425.5Z"/></svg>